<svg xmlns="http://www.w3.org/2000/svg" viewBox="0.002672940492630005 0.028481602668762207 195.34384155273438 197.41749572753906"><path d="M83.79 112.57c0-8.42.09-16.85 0-25.27 0-2 .63-2.55 2.59-2.53 7.46.1 14.93 0 22.39.08 1.94 0 2.62-.48 2.59-2.52-.11-7.46 0-14.93-.09-22.39 0-2.07.74-2.57 2.63-2.56q19.53.07 39 0c.69 0 1.68.42 2-.42.26-.63-.49-1.21-.9-1.73-10.32-13.06-23.45-21.79-39.7-25.7a67.1 67.1 0 0 0-18.71-2c-22.27 1-40.42 10.13-54.3 27.61a60.58 60.58 0 0 0-8.42 14 3 3 0 0 1-3.29 2c-8.08-.08-16.16 0-24.25 0-2.47 0-2.55-.1-1.82-2.39a97.35 97.35 0 0 1 30.1-45.16A96.45 96.45 0 0 1 72.38 3.31a98.78 98.78 0 0 1 98.12 28.81 94.86 94.86 0 0 1 21 35.8 104.89 104.89 0 0 1 3.65 14.7c.4 2.37.39 2.45-2 2.45h-75.46a35.11 35.11 0 0 1-3.7 0c-1.84-.18-2.72.41-2.44 2.37a14 14 0 0 1 0 2v19.32c0 4.3.41 3.78-3.89 3.79H83.82z" fill="#44D9E6"></path><path d="M83.79 112.57v.07c.37 5 .09 10 .16 15 0 3.36-.08 6.71 0 10.06.06 1.73-.54 2.2-2.23 2.19H40.04c-.28 0-.38.15-.21.41a69.64 69.64 0 0 0 27.62 22.95 67.6 67.6 0 0 0 38.19 6.17c26.37-3.45 45.32-17.5 56.87-41.45a2.76 2.76 0 0 1 2.92-1.89h24.66c2.22 0 2.41.24 1.69 2.37-10.5 30.9-31 52.14-61.64 63.41a93 93 0 0 1-37.13 5.43A98.8 98.8 0 0 1 4.7 132a14.09 14.09 0 0 1-.36-1.59.58.58 0 0 0-.37-.81c-.07-.31-.15-.62-.23-.92.37-.67-.08-1-.51-1.41l-.18-.93c.14-.52.24-1-.46-1.23-.11-.56-.23-1.12-.34-1.67a.55.55 0 0 0-.3-.82l-.33-1.72c.45-.43.21-.63-.26-.75-.13-.81-.27-1.61-.4-2.41.18-.51.3-1-.34-1.28l-.24-1.74c.41-.43.4-.8-.14-1.1-.18-.69.12-1.06.8-1.11s1.23-.08 1.84-.08H82c.58-.02 1.19.09 1.79.14z" fill="#5273FF"></path><path d="M.24 113.59c.54.3.55.67.14 1.1-.38-.32-.55-.69-.14-1.1zM.62 116.43c.64.29.52.77.34 1.28a.81.81 0 0 1-.34-1.28zM2.59 125.08c.7.2.6.71.46 1.23a.85.85 0 0 1-.46-1.23zM3.23 127.24c.43.38.88.74.51 1.41a1.2 1.2 0 0 1-.51-1.41zM1.36 120.12c.47.12.71.32.26.75a.46.46 0 0 1-.26-.75zM2 122.59a.55.55 0 0 1 .3.82c-.5-.15-.66-.41-.3-.82zM4 129.57a.58.58 0 0 1 .37.81c-.49-.12-.67-.38-.37-.81zM39.91 140.24c-.17-.26-.07-.38.21-.41z" fill="#44D9E6"></path></svg>
